<svg width="100%" viewBox="230 40 170 175" role="img" xmlns="http://www.w3.org/2000/svg">
<title>DYAD logo — sky blue</title>
<desc>DYAD logo with sky blue interlocking D shapes, left D on top, ribbon, and sans-serif wordmark.</desc>
<g transform="translate(630,0) scale(-1,1)">
  <text x="240" y="140" font-family="Georgia, 'Times New Roman', serif" font-size="120px" font-weight="700" fill="#4ab3e8" opacity="0.6">D</text>
</g>
<text x="240" y="140" font-family="Georgia, 'Times New Roman', serif" font-size="120px" font-weight="700" fill="#4ab3e8" opacity="0.95">D</text>
<path d="M247 150 L260 150 C280 151 300 149 315 148 C330 149 350 151 370 150 L383 150 L377 155 L383 160 L370 160 C350 161 330 159 315 158 C300 159 280 161 260 160 L247 160 L253 155 Z" fill="#b8e0f5" opacity="0.8"/>
<path d="M248 151 L260 151 C280 152 300 150 315 149 C330 150 350 152 370 151 L381 151 L376 154 L370 153 C350 154 330 152 315 151 C300 152 280 154 260 153 L248 153 L252 152 Z" fill="white" opacity="0.45"/>
<text x="318" y="200" text-anchor="middle" font-family="Anthropic Sans, -apple-system, Segoe UI, sans-serif" font-size="38px" font-weight="500" fill="#1a6fa8" letter-spacing="10">DYAD</text>
</svg>
